<?xml version="1.0" standalone="no"?>
<!DOCTYPE svg PUBLIC "-//W3C//DTD SVG 20010904//EN"
 "http://www.w3.org/TR/2001/REC-SVG-20010904/DTD/svg10.dtd">
<svg version="1.0" xmlns="http://www.w3.org/2000/svg"
 width="700.000000pt" height="700.000000pt" viewBox="0 0 700.000000 700.000000"
 preserveAspectRatio="xMidYMid meet">
<metadata>
Created by potrace 1.14, written by Peter Selinger 2001-2017
</metadata>
<g transform="translate(0.000000,700.000000) scale(0.100000,-0.100000)"
fill="#000000" stroke="none">
<path d="M1469 6368 c-109 -8 -186 -26 -287 -66 -227 -93 -435 -318 -510 -552
-45 -139 -43 -60 -44 -2230 0 -1125 3 -2070 7 -2100 48 -403 386 -740 789
-786 76 -8 4061 -9 4147 0 80 8 188 37 264 71 150 66 322 219 408 363 51 85
102 216 112 292 3 25 9 54 12 64 8 28 7 4091 -1 4156 -18 137 -69 273 -147
391 -38 57 -142 168 -199 214 -122 97 -301 167 -460 181 -94 8 -3977 10 -4091
2z m3462 -1797 c165 -165 299 -303 299 -306 0 -4 -478 -486 -1062 -1072 -585
-586 -1069 -1072 -1077 -1080 -22 -23 54 -95 -753 715 l-618 619 274 274 c151
151 288 287 304 303 l31 29 311 -309 c172 -170 338 -336 370 -369 l59 -60 573
572 c315 315 665 664 778 777 113 113 207 205 209 205 2 1 138 -134 302 -298z"/>
</g>
</svg>
