<?xml version="1.0" encoding="UTF-8"?>
<svg id="Ebene_2" data-name="Ebene 2" xmlns="http://www.w3.org/2000/svg" viewBox="0 0 337 120.11">
  <defs>
    <style>
      .cls-1 {
        fill: #efedd8;
        stroke-width: 0px;
      }
    </style>
  </defs>
  <g id="_Ńëîé_3" data-name="Ńëîé 3">
    <path class="cls-1" d="m337,7.9v112.21H0V4.35C0,1.96,1.91.02,4.3,0h60.49v14.49c-5.93,1.25-10.38,6.51-10.38,12.81,0,7.24,5.87,13.11,13.11,13.11s13.1-5.87,13.1-13.11c0-6.3-4.45-11.56-10.37-12.81V0h44.77v14.49c-5.92,1.25-10.37,6.51-10.37,12.81,0,7.24,5.86,13.11,13.1,13.11s13.11-5.87,13.11-13.11c0-6.3-4.45-11.56-10.38-12.81V0h44.78v14.49c-5.93,1.25-10.38,6.51-10.38,12.81,0,7.24,5.87,13.11,13.11,13.11s13.1-5.87,13.1-13.11c0-6.3-4.45-11.56-10.37-12.81V0h44.77v14.49c-5.92,1.25-10.37,6.51-10.37,12.81,0,7.24,5.87,13.11,13.1,13.11s13.11-5.87,13.11-13.11c0-6.3-4.45-11.56-10.38-12.81V0h44.78v14.49c-5.93,1.25-10.38,6.51-10.38,12.81,0,7.17,5.76,13,12.91,13.1h.35c7.23.01,13.1-5.86,13.1-13.1,0-6.3-4.45-11.56-10.37-12.81V.04l58.23-.04c4.18.26,7.43,3.72,7.43,7.9Z"/>
  </g>
</svg>